    <svg width="83" height="83" viewBox="0 0 83 83" fill="none" xmlns="http://www.w3.org/2000/svg">
      <circle cx="41.5" cy="41.5" r="41.5" fill="white" />
      <path d="M35.9453 50.8312L48.9834 37.7931L50.1358 38.9454L37.0976 51.9835L35.9453 50.8312Z" fill="#6DA523" />
      <path d="M38.9622 44.0729C39.8264 44.0729 40.6554 43.7296 41.2668 43.1185C41.8779 42.5071 42.2213 41.6781 42.2213 40.8139C42.2213 39.9497 41.8779 39.1207 41.2668 38.5093C40.6554 37.8982 39.8264 37.5548 38.9622 37.5548C38.098 37.5548 37.269 37.8982 36.6576 38.5093C36.0465 39.1207 35.7031 39.9497 35.7031 40.8139C35.7031 41.6781 36.0465 42.5071 36.6576 43.1185C37.269 43.7296 38.098 44.0729 38.9622 44.0729ZM38.9622 39.1843C39.3943 39.1843 39.809 39.356 40.1145 39.6616C40.42 39.9671 40.5917 40.3818 40.5917 40.8139C40.5917 41.246 40.42 41.6607 40.1145 41.9662C39.809 42.2717 39.3943 42.4434 38.9622 42.4434C38.5301 42.4434 38.1154 42.2717 37.8099 41.9662C37.5043 41.6607 37.3327 41.246 37.3327 40.8139C37.3327 40.3818 37.5043 39.9671 37.8099 39.6616C38.1154 39.356 38.5301 39.1843 38.9622 39.1843Z" fill="#6DA523" />
      <path d="M46.2942 46.5171C45.43 46.5171 44.601 46.8605 43.9896 47.4715C43.3785 48.083 43.0352 48.9119 43.0352 49.7762C43.0352 50.6404 43.3785 51.4694 43.9896 52.0808C44.601 52.6919 45.43 53.0352 46.2942 53.0352C47.1584 53.0352 47.9874 52.6919 48.5988 52.0808C49.2099 51.4693 49.5533 50.6404 49.5533 49.7762C49.5533 48.9119 49.2099 48.0829 48.5988 47.4715C47.9874 46.8605 47.1584 46.5171 46.2942 46.5171ZM46.2942 51.4057C45.8621 51.4057 45.4474 51.234 45.1419 50.9285C44.8364 50.6229 44.6647 50.2083 44.6647 49.7762C44.6647 49.344 44.8364 48.9294 45.1419 48.6238C45.4474 48.3183 45.8621 48.1466 46.2942 48.1466C46.7263 48.1466 47.141 48.3183 47.4465 48.6238C47.7521 48.9294 47.9238 49.344 47.9238 49.7762C47.9238 50.2083 47.7521 50.6229 47.4465 50.9285C47.141 51.234 46.7263 51.4057 46.2942 51.4057Z" fill="#6DA523" />
      <path d="M46.2945 57.1093C46.7444 57.1093 47.1092 56.7444 47.1092 56.2945C47.1092 55.8446 46.7444 55.4797 46.2945 55.4797H38.1468C37.6969 55.4797 37.332 55.8446 37.332 56.2945C37.332 56.7444 37.6969 57.1093 38.1468 57.1093H46.2945Z" fill="#727272" />
      <path d="M47.9246 58.7388H36.5179C36.068 58.7388 35.7031 59.1036 35.7031 59.5535C35.7031 60.0035 36.068 60.3683 36.5179 60.3683H47.9246C48.3746 60.3683 48.7394 60.0035 48.7394 59.5535C48.7394 59.1036 48.3746 58.7388 47.9246 58.7388Z" fill="#727272" />
      <path d="M47.9246 61.9978H36.5179C36.068 61.9978 35.7031 62.3626 35.7031 62.8126C35.7031 63.2625 36.068 63.6273 36.5179 63.6273H47.9246C48.3746 63.6273 48.7394 63.2625 48.7394 62.8126C48.7394 62.3626 48.3746 61.9978 47.9246 61.9978Z" fill="#727272" />
      <path d="M42.2213 18.0004C41.7714 18.0004 41.4065 18.3652 41.4065 18.8151V25.9931C41.0643 26.1015 40.7445 26.2695 40.4616 26.4903L30.3343 34.638L30.0004 34.9475L30 65.9906C30 66.2281 30.0946 66.4562 30.2626 66.6242C30.4307 66.7923 30.6587 66.8868 30.8962 66.8868H53.5468C53.7843 66.8868 54.0123 66.7923 54.1804 66.6242C54.3484 66.4562 54.443 66.2281 54.443 65.9906V34.8581L43.9814 26.4904C43.6984 26.2696 43.3787 26.1016 43.0364 25.9932V18.8152C43.0364 18.5992 42.9506 18.3919 42.7978 18.2391C42.6451 18.0863 42.4377 18.0005 42.2217 18.0005L42.2213 18.0004ZM42.2213 33.4809C42.4374 33.4809 42.6447 33.3951 42.7975 33.2423C42.9502 33.0896 43.0361 32.8822 43.0361 32.6662V32.0795C43.4533 32.3202 43.7424 32.7334 43.8261 33.2077C43.9098 33.682 43.7792 34.1691 43.4696 34.5383C43.1601 34.9071 42.7029 35.1203 42.2213 35.1203C41.7398 35.1203 41.2825 34.9071 40.973 34.5383C40.6635 34.1691 40.5329 33.6821 40.6165 33.2077C40.7002 32.7334 40.9894 32.3202 41.4066 32.0795V32.6662C41.4066 32.8822 41.4924 33.0896 41.6452 33.2423C41.798 33.3951 42.0053 33.4809 42.2214 33.4809H42.2213ZM52.8133 35.6644V65.2567H31.6293V35.6644L41.4065 27.8263V30.336C40.3735 30.6026 39.5366 31.3582 39.1656 32.358C38.7946 33.3583 38.9368 34.4768 39.5461 35.3527C40.1553 36.2285 41.1545 36.7505 42.2213 36.7505C43.2881 36.7505 44.2873 36.2286 44.8965 35.3527C45.5057 34.4768 45.648 33.3583 45.277 32.358C44.906 31.3582 44.069 30.6026 43.036 30.336V27.8263L52.8133 35.6644Z" fill="#727272" />
    </svg>