<svg width="24" height="24" viewBox="0 0 24 24" fill="none" xmlns="http://www.w3.org/2000/svg">
<mask id="path-1-inside-1_3298_77235" fill="white">
<path d="M21.314 11.4401L19.9529 10.8331L18.7966 8.51485C18.6433 8.20356 18.4086 7.94262 18.1191 7.76143C17.8295 7.58024 17.4966 7.48601 17.1579 7.48937H15.1677V6.90981C15.17 6.66036 15.1243 6.41292 15.0334 6.18172C14.9425 5.95052 14.8082 5.74012 14.6381 5.56263C14.468 5.38514 14.2655 5.24405 14.0423 5.1475C13.8191 5.05094 13.5796 5.00081 13.3376 5H3.81819C3.57697 5.00179 3.33846 5.05268 3.11638 5.14974C2.89429 5.2468 2.693 5.38811 2.52406 5.56557C2.35513 5.74303 2.22188 5.95314 2.13197 6.18382C2.04205 6.41451 1.99725 6.66123 2.00013 6.90981V15.7869C1.99805 15.9387 2.02502 16.0896 2.0795 16.2307C2.13399 16.3719 2.21493 16.5006 2.31768 16.6095C2.42044 16.7184 2.54302 16.8054 2.6784 16.8655C2.81378 16.9256 2.95933 16.9576 3.10672 16.9597H3.36125V17.0521C3.3725 17.6748 3.61981 18.2682 4.05024 18.7053C4.48067 19.1424 5.06003 19.3885 5.66433 19.391C6.26863 19.3934 6.84985 19.152 7.2836 18.7184C7.71735 18.2848 7.96918 17.6934 7.98518 17.0709V17.0484C7.98712 17.0176 7.98712 16.9867 7.98518 16.956H15.6756V17.0484C15.6674 17.3658 15.7209 17.6816 15.8328 17.9774C15.9448 18.2732 16.1129 18.543 16.3274 18.7709C16.5419 18.9988 16.7985 19.1802 17.0819 19.3045C17.3654 19.4288 17.6702 19.4934 17.9782 19.4947C18.2863 19.4959 18.5915 19.4337 18.876 19.3117C19.1604 19.1897 19.4183 19.0104 19.6345 18.7843C19.8508 18.5581 20.021 18.2897 20.1352 17.9949C20.2494 17.7 20.3052 17.3846 20.2995 17.0671V16.9522H20.8752C21.1734 16.9519 21.4593 16.8297 21.6702 16.6124C21.8811 16.3951 21.9997 16.1004 22 15.7931V12.5068C22.0005 12.2791 21.9357 12.0563 21.8136 11.8665C21.6915 11.6767 21.5177 11.5284 21.314 11.4401ZM5.67867 18.5285C5.39766 18.53 5.12254 18.4455 4.88818 18.2857C4.65382 18.1259 4.47078 17.898 4.36224 17.6308C4.2537 17.3637 4.22455 17.0694 4.27849 16.7852C4.33243 16.5009 4.46703 16.2396 4.66523 16.0343C4.86343 15.829 5.11631 15.689 5.39182 15.6319C5.66734 15.5749 5.95308 15.6034 6.21285 15.7139C6.47261 15.8244 6.69471 16.0118 6.85099 16.2525C7.00727 16.4932 7.09069 16.7763 7.0907 17.0659C7.09102 17.2578 7.0546 17.448 6.98354 17.6254C6.91248 17.8029 6.80816 17.9641 6.67656 18.1C6.54496 18.2358 6.38866 18.3436 6.2166 18.4171C6.04454 18.4907 5.86009 18.5285 5.67382 18.5285H5.67867ZM14.2842 16.0492H7.76702C7.58141 15.6383 7.28581 15.2906 6.915 15.047C6.54418 14.8034 6.11358 14.674 5.67382 14.674C5.23407 14.674 4.80346 14.8034 4.43265 15.047C4.06183 15.2906 3.76624 15.6383 3.58063 16.0492H3.1249C3.09356 16.0492 3.06254 16.0427 3.03372 16.03C3.0049 16.0173 2.97887 15.9987 2.95723 15.9754C2.93558 15.952 2.91876 15.9244 2.90779 15.8941C2.89682 15.8638 2.89193 15.8316 2.8934 15.7993V13.4261H14.2757L14.2842 16.0492ZM14.2842 6.91355V12.5068H2.8934V6.91355C2.89132 6.78601 2.91372 6.65931 2.95931 6.54071C3.0049 6.42212 3.07278 6.31398 3.15906 6.22252C3.24534 6.13105 3.3483 6.05806 3.46204 6.00774C3.57579 5.95742 3.69806 5.93076 3.82183 5.9293H13.3376C13.5877 5.93161 13.8267 6.03596 14.0023 6.2195C14.1779 6.40304 14.2757 6.65081 14.2745 6.90856L14.2842 6.91355ZM15.1774 8.41242H17.1676C17.3418 8.40967 17.5134 8.45678 17.6631 8.54852C17.8129 8.64025 17.9351 8.77301 18.016 8.93203L18.9093 10.7119H15.1677L15.1774 8.41242ZM17.9942 18.5298C17.7135 18.5298 17.4391 18.444 17.2057 18.2833C16.9723 18.1226 16.7904 17.8941 16.6829 17.6269C16.5755 17.3596 16.5474 17.0655 16.6022 16.7818C16.6569 16.4981 16.7921 16.2374 16.9906 16.0329C17.1891 15.8283 17.442 15.689 17.7173 15.6326C17.9926 15.5762 18.278 15.6051 18.5373 15.7158C18.7967 15.8265 19.0184 16.014 19.1743 16.2545C19.3303 16.4951 19.4135 16.7779 19.4135 17.0671C19.4137 17.26 19.3767 17.4511 19.3049 17.6292C19.233 17.8073 19.1275 17.969 18.9947 18.1049C18.8618 18.2408 18.7041 18.3482 18.5307 18.4209C18.3573 18.4936 18.1717 18.5302 17.9845 18.5285L17.9942 18.5298ZM21.114 15.7981C21.1155 15.8304 21.1106 15.8626 21.0996 15.8928C21.0886 15.9231 21.0718 15.9507 21.0502 15.9741C21.0285 15.9975 21.0025 16.016 20.9737 16.0287C20.9449 16.0414 20.9138 16.0479 20.8825 16.0479H20.0874C19.9014 15.6375 19.6057 15.2902 19.2349 15.047C18.8642 14.8037 18.4337 14.6745 17.9942 14.6745C17.5547 14.6745 17.1242 14.8037 16.7535 15.047C16.3827 15.2902 16.087 15.6375 15.901 16.0479H15.1738V11.6337H19.548L20.9673 12.2783C21.0117 12.3017 21.0487 12.3376 21.074 12.3818C21.0993 12.426 21.1119 12.4767 21.1104 12.5281L21.114 15.7981Z"/>
</mask>
<path d="M21.314 11.4401L19.9529 10.8331L18.7966 8.51485C18.6433 8.20356 18.4086 7.94262 18.1191 7.76143C17.8295 7.58024 17.4966 7.48601 17.1579 7.48937H15.1677V6.90981C15.17 6.66036 15.1243 6.41292 15.0334 6.18172C14.9425 5.95052 14.8082 5.74012 14.6381 5.56263C14.468 5.38514 14.2655 5.24405 14.0423 5.1475C13.8191 5.05094 13.5796 5.00081 13.3376 5H3.81819C3.57697 5.00179 3.33846 5.05268 3.11638 5.14974C2.89429 5.2468 2.693 5.38811 2.52406 5.56557C2.35513 5.74303 2.22188 5.95314 2.13197 6.18382C2.04205 6.41451 1.99725 6.66123 2.00013 6.90981V15.7869C1.99805 15.9387 2.02502 16.0896 2.0795 16.2307C2.13399 16.3719 2.21493 16.5006 2.31768 16.6095C2.42044 16.7184 2.54302 16.8054 2.6784 16.8655C2.81378 16.9256 2.95933 16.9576 3.10672 16.9597H3.36125V17.0521C3.3725 17.6748 3.61981 18.2682 4.05024 18.7053C4.48067 19.1424 5.06003 19.3885 5.66433 19.391C6.26863 19.3934 6.84985 19.152 7.2836 18.7184C7.71735 18.2848 7.96918 17.6934 7.98518 17.0709V17.0484C7.98712 17.0176 7.98712 16.9867 7.98518 16.956H15.6756V17.0484C15.6674 17.3658 15.7209 17.6816 15.8328 17.9774C15.9448 18.2732 16.1129 18.543 16.3274 18.7709C16.5419 18.9988 16.7985 19.1802 17.0819 19.3045C17.3654 19.4288 17.6702 19.4934 17.9782 19.4947C18.2863 19.4959 18.5915 19.4337 18.876 19.3117C19.1604 19.1897 19.4183 19.0104 19.6345 18.7843C19.8508 18.5581 20.021 18.2897 20.1352 17.9949C20.2494 17.7 20.3052 17.3846 20.2995 17.0671V16.9522H20.8752C21.1734 16.9519 21.4593 16.8297 21.6702 16.6124C21.8811 16.3951 21.9997 16.1004 22 15.7931V12.5068C22.0005 12.2791 21.9357 12.0563 21.8136 11.8665C21.6915 11.6767 21.5177 11.5284 21.314 11.4401ZM5.67867 18.5285C5.39766 18.53 5.12254 18.4455 4.88818 18.2857C4.65382 18.1259 4.47078 17.898 4.36224 17.6308C4.2537 17.3637 4.22455 17.0694 4.27849 16.7852C4.33243 16.5009 4.46703 16.2396 4.66523 16.0343C4.86343 15.829 5.11631 15.689 5.39182 15.6319C5.66734 15.5749 5.95308 15.6034 6.21285 15.7139C6.47261 15.8244 6.69471 16.0118 6.85099 16.2525C7.00727 16.4932 7.09069 16.7763 7.0907 17.0659C7.09102 17.2578 7.0546 17.448 6.98354 17.6254C6.91248 17.8029 6.80816 17.9641 6.67656 18.1C6.54496 18.2358 6.38866 18.3436 6.2166 18.4171C6.04454 18.4907 5.86009 18.5285 5.67382 18.5285H5.67867ZM14.2842 16.0492H7.76702C7.58141 15.6383 7.28581 15.2906 6.915 15.047C6.54418 14.8034 6.11358 14.674 5.67382 14.674C5.23407 14.674 4.80346 14.8034 4.43265 15.047C4.06183 15.2906 3.76624 15.6383 3.58063 16.0492H3.1249C3.09356 16.0492 3.06254 16.0427 3.03372 16.03C3.0049 16.0173 2.97887 15.9987 2.95723 15.9754C2.93558 15.952 2.91876 15.9244 2.90779 15.8941C2.89682 15.8638 2.89193 15.8316 2.8934 15.7993V13.4261H14.2757L14.2842 16.0492ZM14.2842 6.91355V12.5068H2.8934V6.91355C2.89132 6.78601 2.91372 6.65931 2.95931 6.54071C3.0049 6.42212 3.07278 6.31398 3.15906 6.22252C3.24534 6.13105 3.3483 6.05806 3.46204 6.00774C3.57579 5.95742 3.69806 5.93076 3.82183 5.9293H13.3376C13.5877 5.93161 13.8267 6.03596 14.0023 6.2195C14.1779 6.40304 14.2757 6.65081 14.2745 6.90856L14.2842 6.91355ZM15.1774 8.41242H17.1676C17.3418 8.40967 17.5134 8.45678 17.6631 8.54852C17.8129 8.64025 17.9351 8.77301 18.016 8.93203L18.9093 10.7119H15.1677L15.1774 8.41242ZM17.9942 18.5298C17.7135 18.5298 17.4391 18.444 17.2057 18.2833C16.9723 18.1226 16.7904 17.8941 16.6829 17.6269C16.5755 17.3596 16.5474 17.0655 16.6022 16.7818C16.6569 16.4981 16.7921 16.2374 16.9906 16.0329C17.1891 15.8283 17.442 15.689 17.7173 15.6326C17.9926 15.5762 18.278 15.6051 18.5373 15.7158C18.7967 15.8265 19.0184 16.014 19.1743 16.2545C19.3303 16.4951 19.4135 16.7779 19.4135 17.0671C19.4137 17.26 19.3767 17.4511 19.3049 17.6292C19.233 17.8073 19.1275 17.969 18.9947 18.1049C18.8618 18.2408 18.7041 18.3482 18.5307 18.4209C18.3573 18.4936 18.1717 18.5302 17.9845 18.5285L17.9942 18.5298ZM21.114 15.7981C21.1155 15.8304 21.1106 15.8626 21.0996 15.8928C21.0886 15.9231 21.0718 15.9507 21.0502 15.9741C21.0285 15.9975 21.0025 16.016 20.9737 16.0287C20.9449 16.0414 20.9138 16.0479 20.8825 16.0479H20.0874C19.9014 15.6375 19.6057 15.2902 19.2349 15.047C18.8642 14.8037 18.4337 14.6745 17.9942 14.6745C17.5547 14.6745 17.1242 14.8037 16.7535 15.047C16.3827 15.2902 16.087 15.6375 15.901 16.0479H15.1738V11.6337H19.548L20.9673 12.2783C21.0117 12.3017 21.0487 12.3376 21.074 12.3818C21.0993 12.426 21.1119 12.4767 21.1104 12.5281L21.114 15.7981Z" fill="#747474" stroke="#747474" stroke-width="2" mask="url(#path-1-inside-1_3298_77235)"/>
</svg>
